produkcja: USA
gatunek: Komedia
reżyseria Tim Andrew, Arthur Borman,
scenariusz Joe Wiseman, Timothy Stack
zdjęcia Armand Gazarian,
muzyka Willie Etra,
czas trwania: 30

Bezlitosna parodia "Słonecznego patrolu", politycznej poprawności i amarykańskiegoi plastiku. Nic dziwnego, "Nagi patrol" swoim nazwiskiem firmuje Howard Stern. Akcja dzieje się na plaży. Grupie ratowników przewodzi nierozgarnięty Notch Johnson. Jedyną rozsądną w jego zespole jest Kimberlee Clark. Jamaica i B.J dość chętnie prezentują swoje wdzięki, umięśniony Chip ledwie mówi po angielsku. Wszystkim działaniom Notcha przeciwstawia się burmistrz Anita Massengil wraz ze swoim synem - gejem Cody'm.

Lisa Banes: Burmistrz Anita Massengil (2000-2001)
Amy Weber: Porcelain Bidet
Jason Hopkins : Kody Massengil
Roland Kickinger: Chip Rommel
Robert Ryan : Profesor Milosevic
Billy Acquaviva Jr.: Overweight Sal
Lou Rosenthal: Wytrzep Kapucyna
Debbie Entin: Self
Leila Arcieri: Jamaica St. Croix
Joseph R. Brown: Human Alien
Kimberly Oja: Kimberlee Clark
Scott Workman: Buff Guy
Jaime Bergman: B.J. Cummings
Scott L. Schwartz: Slave Driver
Timothy Stack : Notch Johnson 


Dane techniczne:

Format : AVI
Format/Info : Audio Video Interleave
File size : 198 MiB
Duration : 21mn 28s
Overall bit rate : 1 289 Kbps
Writing application : FairUse Wizard - http://fairusewizard.com
Writing library : The best and REALLY easy backup tool

Video
ID : 0
Format : MPEG-4 Visual
Format profile : Advanced Simple@L5
Format settings, BVOP : 1
Format settings, QPel : No
Format settings, GMC : No warppoints
Format settings, Matrix : Default (MPEG)
Muxing mode : Packed bitstream
Codec ID : XVID
Codec ID/Hint : XviD
Duration : 21mn 28s
Bit rate : 1 152 Kbps
Width : 560 pixels
Height : 432 pixels
Display aspect ratio : 1.296
Frame rate : 25.000 fps
Color space : YUV
Chroma subsampling : 4:2:0
Bit depth : 8 bits
Scan type : Progressive
Compression mode : Lossy
Bits/(Pixel*Frame) : 0.190
Stream size : 177 MiB (89%)
Writing library : XviD 1.2.0.dev47 (UTC 2006-11-01)

Audio
ID : 1
Format : MPEG Audio
Format version : Version 1
Format profile : Layer 3
Mode : Joint stereo
Mode extension : MS Stereo
Codec ID : 55
Codec ID/Hint : MP3
Duration : 21mn 27s
Bit rate mode : Constant
Bit rate : 128 Kbps
Channel(s) : 2 channels
Sampling rate : 48.0 KHz
Compression mode : Lossy
Stream size : 19.6 MiB (10%)
Alignment : Aligned on interleaves
Interleave, duration : 40 ms (1.00 video frame)
Interleave, preload duration : 504 ms
Writing library : LAME3.97 
Encoding settings : -m j -V 4 -q 2 -lowpass 17 -b 128 
